HIERARCHY
ROOT Hips
{
  OFFSET 0 0 0
  CHANNELS 6 Xposition Yposition Zposition Zrotation Yrotation Xrotation
  JOINT LeftThigh
  {
    OFFSET 8.759831 0 -6.164326
    CHANNELS 3 Zrotation Yrotation Xrotation
    JOINT LeftLeg
    {
      OFFSET 0 0 -44.123596
      CHANNELS 3 Zrotation Yrotation Xrotation
      JOINT LeftFoot
      {
        OFFSET 0 0 -40.997191
        CHANNELS 3 Zrotation Yrotation Xrotation
        End Site
        {
          OFFSET 0 -13.883989 -5.217556
        }
      }
    }
  }
  JOINT RightThigh
  {
    OFFSET -8.759831 0 -6.164326
    CHANNELS 3 Zrotation Yrotation Xrotation
    JOINT RightLeg
    {
      OFFSET 0 0 -44.123596
      CHANNELS 3 Zrotation Yrotation Xrotation
      JOINT RightFoot
      {
        OFFSET 0 0 -40.997191
        CHANNELS 3 Zrotation Yrotation Xrotation
        End Site
        {
          OFFSET 0 -13.883989 -5.217556
        }
      }
    }
  }
  JOINT SpineLow
  {
    OFFSET 0 0 4.91573
    CHANNELS 3 Zrotation Yrotation Xrotation
    JOINT SpineMid
    {
      OFFSET 0 0 13.436657
      CHANNELS 3 Zrotation Yrotation Xrotation
      JOINT Chest
      {
        OFFSET 0 0 13.436657
        CHANNELS 3 Zrotation Yrotation Xrotation
        JOINT LeftShoulder
        {
          OFFSET 7.865169 1.474719 9.831461
          CHANNELS 3 Zrotation Yrotation Xrotation
          JOINT LeftArm
          {
            OFFSET 9.536517 0 4.424157
            CHANNELS 3 Zrotation Yrotation Xrotation
            JOINT LeftForearm
            {
              OFFSET 0 0 26.845787
              CHANNELS 3 Zrotation Yrotation Xrotation
              JOINT LeftHand
              {
                OFFSET 0 0 26.247051
                CHANNELS 3 Zrotation Yrotation Xrotation
              }
            }
          }
        }
        JOINT RightShoulder
        {
          OFFSET -7.865169 1.474719 9.831461
          CHANNELS 3 Zrotation Yrotation Xrotation
          JOINT RightArm
          {
            OFFSET -9.536517 0 4.424157
            CHANNELS 3 Zrotation Yrotation Xrotation
            JOINT RightForearm
            {
              OFFSET 0 0 -26.845787
              CHANNELS 3 Zrotation Yrotation Xrotation
              JOINT RightHand
              {
                OFFSET 0 0 -26.247051
                CHANNELS 3 Zrotation Yrotation Xrotation
              }
            }
          }
        }
        JOINT Neck
        {
          OFFSET 0 0 15.730337
          CHANNELS 3 Zrotation Yrotation Xrotation
          JOINT Head
          {
            OFFSET 0 0 11.797753
            CHANNELS 3 Zrotation Yrotation Xrotation
            End Site
            {
              OFFSET 0 0 7.747191
            }
          }
        }
      }
    }
  }
}
MOTION
Frames: 17
Frame Time: 0.01
-30.867386  93.631355  37.900669  172.879037  15.986965  76.739881  -5.344666  -10.142018  7.374452  7.017447  2.587269  14.480877  8.558257  13.066107  -4.782311  -10.987195  16.518722  0.40595  -9.316192  1.163719  8.88242  5.980285  -9.785473  4.041238  -0.723595  -0.114393  -0.010889  -1.977837  -0.312975  -0.02634  -1.977837  -0.312975  -0.02634  -12.662477  15.703565  18.958702  112.084628  47.409374  163.239726  0.64381  0.855424  41.29319  68.473117  -1.908337  -8.553382  7.622743  -17.226679  24.675263  62.216182  52.274085  14.500717  0.612918  -8.077565  -37.517127  90.299376  0.799984  24.282427  -4.320451  -0.118704  10.861986  -3.239441  -0.165904  8.146132  
-30.865147  93.632248  37.879848  172.891688  15.960223  76.756121  -5.387811  -10.137428  7.371482  7.038101  2.56812  14.485199  8.594197  13.080771  -4.767938  -10.962478  16.506406  0.39973  -9.373139  1.186766  8.92178  6.00106  -9.7975  4.017597  -0.735599  -0.107803  -0.007216  -2.010666  -0.294857  -0.016443  -2.010667  -0.294857  -0.016444  -12.626361  15.637636  18.90283  112.073697  47.399691  163.256545  0.720355  0.791676  41.234753  68.511756  -1.880314  -8.495822  7.731039  -17.268414  24.590151  62.303322  52.253696  14.563429  0.672464  -8.049216  -37.523137  90.221715  0.727446  24.22226  -4.314133  -0.143665  10.785649  -3.234258  -0.18398  8.088698  
-30.860533  93.634132  37.848305  172.894368  15.97085  76.771104  -5.367752  -10.124206  7.380952  7.008205  2.540841  14.471422  8.611748  13.098617  -4.770665  -10.941291  16.493917  0.404808  -9.390274  1.195279  8.919634  6.006385  -9.797968  4.009654  -0.730811  -0.105883  -0.004815  -1.997589  -0.289535  -0.009959  -1.997589  -0.289535  -0.009959  -12.657242  15.602132  18.846485  112.038904  47.405485  163.239478  0.783744  0.75582  41.189992  68.468613  -1.877981  -8.421592  7.757215  -17.266264  24.510093  62.363047  52.2444  14.605229  0.703979  -8.028518  -37.495479  90.182427  0.695063  24.104783  -4.357037  -0.151518  10.705368  -3.266311  -0.190055  8.028428  
-30.866076  93.638329  37.813564  172.909119  15.94278  76.788723  -5.37109  -10.114088  7.378058  7.002204  2.508393  14.473515  8.64467  13.118323  -4.761571  -10.928782  16.474769  0.423437  -9.429404  1.21122  8.920211  6.01713  -9.804885  3.995692  -0.738297  -0.099918  0.00306  -2.018085  -0.272994  0.011414  -2.018085  -0.272994  0.011414  -12.672932  15.533888  18.761062  112.068972  47.415123  163.268165  0.865714  0.728845  41.131763  68.482402  -1.854808  -8.395701  7.845479  -17.294969  24.390139  62.465707  52.224912  14.680548  0.758807  -8.017143  -37.50435  90.110607  0.611994  24.02847  -4.360191  -0.183515  10.623741  -3.268122  -0.213534  7.966973  
-30.861412  93.640572  37.782265  172.907451  15.957975  76.810889  -5.363608  -10.091486  7.38457  6.99476  2.471822  14.453466  8.658461  13.140789  -4.761317  -10.89368  16.459621  0.436384  -9.463082  1.216691  8.90552  6.027966  -9.80023  3.982592  -0.733941  -0.096608  0.01168  -2.006212  -0.263685  0.034853  -2.006212  -0.263685  0.034853  -12.712084  15.479336  18.649615  112.018875  47.413495  163.23633  0.891769  0.724407  41.075233  68.446392  -1.862575  -8.357245  7.895755  -17.28492  24.250641  62.52615  52.209698  14.715499  0.80012  -8.003896  -37.477183  90.076925  0.559756  23.910511  -4.396911  -0.199901  10.527243  -3.295397  -0.225772  7.894473  
-30.860554  93.643425  37.755814  172.915344  15.942284  76.837776  -5.403341  -10.075386  7.381461  7.02893  2.439523  14.4427  8.693157  13.160815  -4.744623  -10.870853  16.450644  0.439797  -9.500891  1.218268  8.907453  6.028709  -9.79935  3.967536  -0.74378  -0.091662  0.025297  -2.033152  -0.249743  0.071959  -2.033152  -0.249743  0.071959  -12.704428  15.403582  18.502093  112.00766  47.395683  163.241601  0.754133  0.771987  40.947873  68.64733  -1.873136  -8.283447  8.036273  -17.293892  24.073793  62.546341  52.189567  14.753719  0.897337  -7.990944  -37.500652  90.014736  0.495026  23.830194  -4.392713  -0.228682  10.427869  -3.291765  -0.246578  7.819729  
-30.85351  93.643959  37.726631  172.906258  15.96255  76.85597  -5.399691  -10.05075  7.392834  7.027656  2.411218  14.419931  8.711801  13.183237  -4.744784  -10.830758  16.449536  0.444191  -9.522669  1.219278  8.90347  6.03015  -9.799882  3.952032  -0.740732  -0.088215  0.037113  -2.024859  -0.239963  0.104136  -2.024859  -0.239963  0.104136  -12.732498  15.348524  18.36601  111.948745  47.380578  163.195982  0.760746  0.764909  40.89382  68.637047  -1.870255  -8.258553  8.101515  -17.27361  23.914297  62.587381  52.183232  14.78152  0.953113  -7.991781  -37.500064  89.981956  0.461988  23.720069  -4.420066  -0.247866  10.324793  -3.311978  -0.260691  7.742272  
-30.850037  93.645706  37.699638  172.908872  15.961494  76.877308  -5.44405  -10.034097  7.402962  7.103335  2.378758  14.40468  8.723517  13.203802  -4.730527  -10.771615  16.439911  0.457705  -9.553149  1.223912  8.898203  6.008178  -9.808873  3.94406  -0.739321  -0.087718  0.047204  -2.021038  -0.238301  0.131695  -2.021038  -0.238301  0.131695  -12.771302  15.312096  18.234256  111.904988  47.33867  163.182671  0.595418  0.779844  40.747041  68.83821  -1.86889  -8.18629  8.162376  -17.255263  23.775216  62.603427  52.168594  14.807186  1.039922  -7.985845  -37.54236  89.917767  0.403977  23.64297  -4.449118  -0.264182  10.238279  -3.333517  -0.272792  7.677257  
-30.842081  93.646004  37.669064  172.897515  15.983665  76.890652  -5.454314  -10.005268  7.424496  7.124909  2.348661  14.37867  8.735128  13.226008  -4.731816  -10.712407  16.441736  0.467099  -9.574994  1.226571  8.89741  5.994601  -9.814669  3.930907  -0.734566  -0.08468  0.059563  -2.008078  -0.229631  0.165363  -2.008078  -0.229631  0.165363  -12.805827  15.263714  18.102063  111.875143  47.322413  163.146546  0.632757  0.745122  40.699556  68.816297  -1.856494  -8.134136  8.212945  -17.240411  23.629152  62.641473  52.171618  14.828979  1.075967  -7.997765  -37.545099  89.889944  0.36942  23.543638  -4.480941  -0.280509  10.139078  -3.357141  -0.284846  7.602724  
-30.842024  93.648506  37.644962  172.899832  15.981914  76.912744  -5.510279  -9.988475  7.433754  7.23334  2.317285  14.363553  8.732993  13.242202  -4.715251  -10.65214  16.431042  0.459807  -9.582728  1.229782  8.907113  5.959471  -9.824335  3.926607  -0.733959  -0.082197  0.071583  -2.006452  -0.222482  0.198139  -2.006452  -0.222482  0.19814  -12.834822  15.212095  17.974164  111.902126  47.311812  163.161475  0.718233  0.692862  40.640231  68.842798  -1.844912  -8.067745  8.284583  -17.240329  23.485825  62.664866  52.171365  14.872317  1.125649  -8.008356  -37.586287  89.856915  0.318857  23.472491  -4.488488  -0.305891  10.049809  -3.362406  -0.303357  7.535576  
-30.831697  93.646629  37.618675  172.889968  16.000788  76.924617  -5.530675  -9.968838  7.450769  7.264543  2.298768  14.349582  8.740259  13.259777  -4.717627  -10.619101  16.428111  0.458914  -9.586033  1.234385  8.916552  5.947848  -9.822695  3.91367  -0.730732  -0.079936  0.085179  -1.997668  -0.215899  0.235221  -1.997668  -0.215899  0.235221  -12.86269  15.167119  17.84332  111.896  47.3098  163.13921  0.779484  0.657981  40.588084  68.815564  -1.84588  -7.977993  8.337304  -17.223415  23.345023  62.722587  52.184742  14.913017  1.147513  -8.018297  -37.601678  89.837761  0.286807  23.377127  -4.511222  -0.317535  9.95201  -3.3793  -0.311743  7.46213  
-30.825188  93.645531  37.599327  172.89355  16.000077  76.943276  -5.584634  -9.967947  7.456359  7.359856  2.287127  14.348613  8.743261  13.270633  -4.706791  -10.58528  16.438421  0.455494  -9.575442  1.212887  8.932136  5.91524  -9.821545  3.905937  -0.731141  -0.077857  0.097576  -1.998816  -0.209843  0.269042  -1.998816  -0.209843  0.269042  -12.883593  15.113586  17.723006  111.955919  47.3175  163.168176  0.886335  0.626716  40.535778  68.876778  -1.843548  -7.906817  8.405306  -17.226984  23.210053  62.803825  52.181781  14.973638  1.150138  -8.028265  -37.612745  89.822838  0.258705  23.313234  -4.511239  -0.340905  9.868075  -3.378959  -0.328656  7.398998  
-30.81951  93.643097  37.577602  172.88483  16.017288  76.954835  -5.611668  -9.94914  7.462567  7.393829  2.272321  14.351766  8.75279  13.284643  -4.712164  -10.543885  16.438576  0.451118  -9.584087  1.213886  8.953166  5.901918  -9.815995  3.889557  -0.72871  -0.076389  0.108206  -1.9922  -0.205518  0.298042  -1.9922  -0.205518  0.298042  -12.901315  15.072261  17.620726  111.939434  47.32659  163.128352  0.936647  0.612001  40.498673  68.883026  -1.840843  -7.848726  8.454953  -17.216436  23.090593  62.873597  52.186693  15.021733  1.158925  -8.031276  -37.623188  89.816926  0.230968  23.239542  -4.526183  -0.348407  9.785558  -3.390079  -0.333913  7.337045  
-30.817316  93.641457  37.556892  172.891576  16.002465  76.974571  -5.679126  -9.953958  7.458966  7.516803  2.268326  14.368235  8.732817  13.288853  -4.701564  -10.516796  16.428597  0.444022  -9.578862  1.213153  8.97737  5.864573  -9.813683  3.877654  -0.735653  -0.075601  0.117025  -2.011201  -0.203067  0.322141  -2.011201  -0.203067  0.322141  -12.892459  15.029797  17.522623  111.986457  47.342156  163.127913  0.853807  0.656999  40.398995  69.105656  -1.855962  -7.739376  8.538783  -17.220944  22.978722  62.923468  52.180118  15.071051  1.188592  -8.030715  -37.646011  89.804018  0.192572  23.195351  -4.512653  -0.363832  9.71976  -3.379706  -0.344781  7.287582  
-30.81687  93.638725  37.534695  172.885586  16.022236  76.987711  -5.694825  -9.944752  7.455046  7.529719  2.271397  14.387365  8.753393  13.295  -4.711009  -10.492761  16.41747  0.43643  -9.564882  1.219086  8.999051  5.848046  -9.803643  3.857032  -0.732154  -0.07703  0.121546  -2.001657  -0.206851  0.334531  -2.001657  -0.206851  0.334532  -12.91122  15.012235  17.455223  111.953126  47.34721  163.075223  0.907338  0.63617  40.351604  69.080227  -1.862554  -7.675967  8.569661  -17.207208  22.899855  62.982662  52.182798  15.119668  1.194573  -8.03438  -37.65373  89.795786  0.164761  23.128609  -4.522002  -0.365005  9.663051  -3.386723  -0.345389  7.245036  
-30.816097  93.636856  37.514572  172.893922  16.018033  77.010274  -5.77574  -9.948655  7.449813  7.624213  2.276944  14.40883  8.777627  13.301536  -4.701169  -10.458529  16.397534  0.414423  -9.542768  1.222969  9.033371  5.789676  -9.795812  3.847301  -0.73088  -0.075943  0.119562  -1.998163  -0.203946  0.329072  -1.998163  -0.203946  0.329072  -12.923487  14.975792  17.430252  111.989189  47.343713  163.082916  1.013057  0.597002  40.295301  69.105164  -1.863792  -7.632355  8.592759  -17.235094  22.860617  63.010085  52.177697  15.169962  1.192316  -8.034584  -37.660178  89.788645  0.149534  23.066135  -4.51884  -0.384344  9.641667  -3.384053  -0.359689  7.228852  
-30.809914  93.632416  37.496914  172.89071  16.045251  77.024434  -5.776146  -9.95411  7.443812  7.610244  2.292835  14.428242  8.814435  13.30836  -4.709659  -10.434992  16.378013  0.401733  -9.507232  1.233773  9.062029  5.759616  -9.788798  3.822435  -0.729995  -0.078882  0.124791  -1.995775  -0.211825  0.34345  -1.995775  -0.211825  0.343449  -12.921917  14.958114  17.363156  111.95938  47.340687  163.037907  1.067274  0.572069  40.23741  69.07702  -1.870419  -7.580476  8.640886  -17.221993  22.779287  63.035581  52.181396  15.199302  1.199079  -8.036279  -37.664078  89.771912  0.127589  22.989016  -4.50962  -0.384135  9.584567  -3.377163  -0.358964  7.18603  
